<?xml version="1.0" encoding="utf-8"?>
<svg viewBox="0 0 500 500" xmlns="http://www.w3.org/2000/svg">
  <path d="M 258.106 474.77 L 258.106 383.937 C 258.106 365.987 264.023 350.685 275.856 338.034 C 287.692 325.382 302.003 319.056 318.792 319.056 L 330.928 319.056 L 330.928 215.246 C 330.928 208.109 333.304 201.999 338.059 196.917 C 342.812 191.835 348.528 189.293 355.202 189.293 L 379.476 189.293 C 386.152 189.293 391.866 191.835 396.62 196.917 C 401.375 201.999 403.751 208.109 403.751 215.246 L 403.751 319.056 L 415.889 319.056 C 432.677 319.056 446.99 325.382 458.823 338.034 C 470.656 350.685 476.574 365.987 476.574 383.937 L 476.574 474.77 L 258.106 474.77 Z M 282.38 448.818 L 306.654 448.818 L 306.654 409.889 C 306.654 406.213 307.817 403.13 310.144 400.642 C 312.47 398.157 315.354 396.913 318.792 396.913 C 322.229 396.913 325.113 398.157 327.44 400.642 C 329.765 403.13 330.928 406.213 330.928 409.889 L 330.928 448.818 L 355.202 448.818 L 355.202 409.889 C 355.202 406.213 356.365 403.13 358.692 400.642 C 361.019 398.157 363.901 396.913 367.34 396.913 C 370.778 396.913 373.662 398.157 375.988 400.642 C 378.314 403.13 379.476 406.213 379.476 409.889 L 379.476 448.818 L 403.751 448.818 L 403.751 409.889 C 403.751 406.213 404.914 403.13 407.24 400.642 C 409.567 398.157 412.45 396.913 415.889 396.913 C 419.328 396.913 422.208 398.157 424.536 400.642 C 426.862 403.13 428.025 406.213 428.025 409.889 L 428.025 448.818 L 452.3 448.818 L 452.3 383.937 C 452.3 373.123 448.759 363.931 441.68 356.361 C 434.6 348.793 426.002 345.008 415.889 345.008 L 318.792 345.008 C 308.678 345.008 300.082 348.793 293.001 356.361 C 285.919 363.931 282.38 373.123 282.38 383.937 L 282.38 448.818 Z M 379.476 319.056 L 379.476 215.246 L 355.202 215.246 L 355.202 319.056 L 379.476 319.056 Z M 379.476 319.056 L 355.202 319.056 L 379.476 319.056 Z" style="fill: rgb(223, 224, 255);" transform="matrix(1, 0, 0, 1, 0, 7.105427357601002e-15)"/>
  <path d="M 240.964 474.941 C 209.217 474.941 179.381 468.917 151.458 456.868 C 123.535 444.819 99.247 428.467 78.591 407.812 C 57.936 387.156 41.584 362.868 29.535 334.945 C 17.486 307.022 11.462 277.186 11.462 245.439 C 11.462 213.691 17.486 183.856 29.535 155.933 C 41.584 128.01 57.936 103.721 78.591 83.066 C 99.247 62.411 123.535 46.059 151.458 34.01 C 179.381 21.961 209.217 15.936 240.964 15.936 C 296.81 15.936 345.675 33.436 387.559 68.435 C 429.443 103.434 455.549 147.327 465.876 200.112 L 418.828 200.112 C 411.561 172.189 398.46 147.231 379.526 125.237 C 360.592 103.243 337.355 86.699 309.815 75.607 L 309.815 84.787 C 309.815 97.41 305.321 108.215 296.332 117.204 C 287.343 126.193 276.537 130.688 263.914 130.688 L 218.014 130.688 L 218.014 176.588 C 218.014 183.09 215.815 188.541 211.416 192.94 C 207.017 197.339 201.566 199.538 195.064 199.538 L 149.163 199.538 L 149.163 245.439 L 195.064 245.439 L 195.064 314.289 L 172.114 314.289 L 61.952 204.128 C 60.805 211.013 59.753 217.898 58.797 224.784 C 57.84 231.669 57.362 238.554 57.362 245.439 C 57.362 295.547 74.958 338.578 110.148 374.534 C 145.338 410.489 188.944 428.658 240.964 429.041 L 240.964 474.941 Z" style="fill: rgb(223, 224, 255);" transform="matrix(1, 0, 0, 1, 0, 7.105427357601002e-15)"/>
</svg>